<?xml version="1.0" encoding="UTF-8"?>
<svg xmlns="http://www.w3.org/2000/svg" xmlns:xlink="http://www.w3.org/1999/xlink" width="48px" height="48px" viewBox="0 0 48 48" version="1.1">
<defs>
<filter id="alpha" filterUnits="objectBoundingBox" x="0%" y="0%" width="100%" height="100%">
  <feColorMatrix type="matrix" in="SourceGraphic" values="0 0 0 0 1 0 0 0 0 1 0 0 0 0 1 0 0 0 1 0"/>
</filter>
<mask id="mask0">
  <g filter="url(#alpha)">
<rect x="0" y="0" width="48" height="48" style="fill:rgb(0%,0%,0%);fill-opacity:0.101961;stroke:none;"/>
  </g>
</mask>
<clipPath id="clip1">
  <rect x="0" y="0" width="48" height="48"/>
</clipPath>
<g id="surface5" clip-path="url(#clip1)">
<path style=" stroke:none;fill-rule:nonzero;fill:rgb(100%,100%,100%);fill-opacity:1;" d="M 7.363281 6.75 C 0.71875 12.671875 -2.105469 21.789062 0.0351562 30.433594 C 2.175781 39.078125 8.921875 45.824219 17.566406 47.964844 C 26.210938 50.105469 35.328125 47.28125 41.25 40.636719 Z M 7.363281 6.75 "/>
</g>
</defs>
<g id="surface1">
<path style=" stroke:none;fill-rule:nonzero;fill:rgb(1.960784%,57.647059%,4.705882%);fill-opacity:1;" d="M 48 24 C 48 37.253906 37.253906 48 24 48 C 10.746094 48 0 37.253906 0 24 C 0 10.746094 10.746094 0 24 0 C 37.253906 0 48 10.746094 48 24 Z M 48 24 "/>
<use xlink:href="#surface5" mask="url(#mask0)"/>
<path style=" stroke:none;fill-rule:nonzero;fill:rgb(100%,100%,100%);fill-opacity:1;" d="M 22.824219 32.664062 C 21.191406 33.457031 19.386719 33.839844 17.574219 33.773438 C 15.148438 33.878906 12.792969 32.933594 11.113281 31.175781 C 9.449219 29.308594 8.578125 26.863281 8.691406 24.359375 C 8.574219 21.648438 9.558594 19.003906 11.421875 17.03125 C 13.242188 15.167969 15.765625 14.160156 18.367188 14.25 C 19.886719 14.191406 21.40625 14.445312 22.824219 15 L 22.824219 17.363281 C 21.449219 16.597656 19.894531 16.207031 18.324219 16.230469 C 16.339844 16.164062 14.425781 16.957031 13.074219 18.40625 C 11.667969 20.007812 10.941406 22.089844 11.046875 24.21875 C 10.945312 26.226562 11.621094 28.199219 12.9375 29.722656 C 14.214844 31.097656 16.027344 31.84375 17.902344 31.769531 C 19.628906 31.8125 21.335938 31.375 22.828125 30.503906 Z M 22.824219 32.664062 "/>
<path style=" stroke:none;fill-rule:nonzero;fill:rgb(100%,100%,100%);fill-opacity:1;" d="M 39.570312 19.84375 L 39.269531 21.238281 L 35.820312 21.238281 L 34.996094 25.199219 L 38.699219 25.199219 L 38.347656 26.59375 L 34.71875 26.59375 L 33.554688 31.84375 L 31.898438 31.84375 L 33.03125 26.59375 L 29.730469 26.59375 L 28.621094 31.84375 L 27 31.84375 L 28.109375 26.59375 L 24.628906 26.59375 L 24.890625 25.199219 L 28.386719 25.199219 L 29.191406 21.246094 L 25.539062 21.246094 L 25.816406 19.851562 L 29.46875 19.851562 L 30.578125 14.550781 L 32.25 14.550781 L 31.140625 19.851562 L 34.460938 19.851562 L 35.59375 14.550781 L 37.214844 14.550781 L 36.105469 19.851562 Z M 34.191406 21.238281 L 30.863281 21.238281 L 30 25.199219 L 33.34375 25.199219 Z M 34.191406 21.238281 "/>
</g>
</svg>
