<?xml version="1.0" encoding="UTF-8"?>
<svg xmlns="http://www.w3.org/2000/svg" xmlns:xlink="http://www.w3.org/1999/xlink" width="48px" height="48px" viewBox="0 0 48 48" version="1.1">
<defs>
<radialGradient id="radial0" gradientUnits="userSpaceOnUse" cx="116.52" cy="98.282" fx="116.52" fy="98.282" r="55.859" gradientTransform="matrix(0.420899,0.651759,-0.36093,0.233085,7.344706,-80.404472)">
<stop offset="0" style="stop-color:rgb(0%,0%,0%);stop-opacity:1;"/>
<stop offset="1" style="stop-color:rgb(0%,0%,0%);stop-opacity:0.898039;"/>
</radialGradient>
<linearGradient id="linear0" gradientUnits="userSpaceOnUse" x1="92.299" y1="123.958" x2="92.299" y2="139.472" gradientTransform="matrix(1.704574,0,0,1.704574,-133.49523,-210.585232)">
<stop offset="0" style="stop-color:rgb(100%,100%,100%);stop-opacity:1;"/>
<stop offset="1" style="stop-color:rgb(100%,100%,100%);stop-opacity:0;"/>
</linearGradient>
</defs>
<g id="surface1">
<path style=" stroke:none;fill-rule:nonzero;fill:url(#radial0);" d="M 24.007812 -0.00390625 C 10.679688 -0.00390625 -0.128906 10.738281 -0.128906 24 C -0.128906 37.257812 10.675781 48 24.007812 48 C 28.367188 48 32.449219 46.851562 35.980469 44.839844 L 37.234375 48 L 46.949219 48 L 43.144531 38.589844 C 46.371094 34.410156 48.121094 29.277344 48.113281 24 C 48.113281 10.738281 37.316406 -0.00390625 23.992188 -0.00390625 Z M 24.007812 -0.00390625 "/>
<path style=" stroke:none;fill-rule:nonzero;fill:url(#linear0);" d="M 39.675781 14.53125 C 39.675781 6.9375 32.519531 0.78125 23.691406 0.78125 C 14.867188 0.78125 7.710938 6.9375 7.710938 14.53125 C 7.710938 22.128906 14.867188 28.285156 23.691406 28.285156 C 32.519531 28.285156 39.675781 22.128906 39.675781 14.53125 Z M 39.675781 14.53125 "/>
<path style=" stroke:none;fill-rule:nonzero;fill:rgb(0%,0%,0%);fill-opacity:1;" d="M 29.054688 9.90625 C 29.054688 11.472656 27.78125 12.742188 26.214844 12.742188 C 24.648438 12.742188 23.378906 11.472656 23.378906 9.90625 C 23.378906 8.339844 24.648438 7.070312 26.214844 7.070312 C 27.78125 7.070312 29.054688 8.339844 29.054688 9.90625 Z M 29.054688 9.90625 "/>
<path style=" stroke:none;fill-rule:nonzero;fill:rgb(0%,0%,0%);fill-opacity:1;" d="M 21.042969 11.257812 L 37.132812 13.578125 L 36.683594 15.914062 L 20.589844 13.59375 Z M 21.042969 11.257812 "/>
<path style=" stroke:none;fill-rule:nonzero;fill:rgb(0%,0%,0%);fill-opacity:1;" d="M 35.542969 14.324219 L 38.378906 14.324219 L 38.378906 15.578125 L 35.542969 15.578125 Z M 35.542969 14.324219 "/>
<path style=" stroke:none;fill-rule:nonzero;fill:rgb(100%,40%,0%);fill-opacity:1;" d="M 17.601562 3.953125 C 17.578125 4.898438 15.929688 4.074219 15.859375 5.152344 C 14.035156 4.339844 16 6.394531 15.820312 6.585938 L 15.804688 6.585938 L 15.667969 6.574219 C 15.578125 6.539062 15.453125 6.488281 15.261719 6.367188 C 13.988281 7.382812 13.957031 9.492188 12.644531 10.660156 C 11.785156 12.519531 11.574219 14.539062 10.945312 16.476562 C 10.632812 18.351562 10.359375 20.195312 10.824219 22.050781 C 10.960938 23.5625 10.527344 25.621094 11.90625 26.679688 C 13.945312 28.359375 15.644531 30.480469 17.359375 32.5 C 20.046875 35.804688 22.425781 39.351562 24.527344 43.054688 C 24.667969 42.140625 25.003906 44.894531 25.617188 45.082031 L 24.996094 39.816406 C 24.316406 35.371094 22.125 31.328125 21.296875 26.925781 L 21.21875 26.355469 L 21.21875 25.804688 L 21.148438 25.804688 C 20.875 23.625 20.78125 21.28125 22.363281 19.582031 C 23.980469 17.953125 26.382812 17.542969 28.332031 16.410156 C 28.761719 16.15625 29.214844 15.949219 29.679688 15.804688 C 31.039062 15.386719 32.480469 15.402344 33.878906 15.628906 L 33.945312 15.640625 L 34.339844 15.710938 C 35.363281 15.800781 37.40625 16.203125 37.792969 15.492188 C 36.378906 14.289062 34.34375 14.375 32.625 13.902344 L 31.679688 13.765625 L 29.976562 13.386719 L 29.558594 13.28125 L 29.558594 13.292969 L 23.523438 12.117188 C 23.429688 12.03125 23.332031 11.949219 23.226562 11.875 L 29.113281 12.601562 L 29.113281 12.574219 L 29.734375 12.683594 L 29.734375 12.695312 L 33.890625 13.464844 C 34.609375 13.730469 35.375 13.933594 36.089844 13.976562 C 37.277344 14.144531 38.78125 15.914062 39.167969 16 C 38.980469 14.140625 37.121094 13.308594 35.578125 12.761719 C 33.777344 11.886719 31.085938 11.917969 30.800781 9.496094 L 30.558594 8.996094 L 29.855469 8.066406 L 29.882812 8.050781 C 28.925781 6.921875 27.578125 6.097656 26.144531 5.785156 C 24.722656 5.292969 23.125 4.804688 21.621094 4.609375 C 21.109375 6.109375 20.539062 3.417969 19.3125 4.214844 C 18.238281 4.34375 18.386719 4.625 17.585938 3.949219 Z M 25.335938 8.339844 C 25.730469 8.328125 26.1875 8.402344 26.617188 8.554688 C 27.8125 8.96875 28.589844 9.835938 28.359375 10.5 C 28.132812 11.164062 26.976562 11.355469 25.78125 10.941406 C 24.585938 10.527344 23.8125 9.675781 24.039062 9.011719 C 24.183594 8.597656 24.6875 8.355469 25.335938 8.339844 Z M 25.335938 8.339844 "/>
</g>
</svg>
